<?xml version="1.0" encoding="utf-8"?>
<!-- Generator: Adobe Illustrator 15.1.0, SVG Export Plug-In . SVG Version: 6.00 Build 0)  -->
<!DOCTYPE svg PUBLIC "-//W3C//DTD SVG 1.1//EN" "http://www.w3.org/Graphics/SVG/1.1/DTD/svg11.dtd">
<svg version="1.1" id="Artwork" xmlns="http://www.w3.org/2000/svg" xmlns:xlink="http://www.w3.org/1999/xlink" x="0px" y="0px"
	 width="23.25px" height="22.375px" viewBox="0 0 23.25 22.375" enable-background="new 0 0 23.25 22.375" xml:space="preserve">
<path fill="#9CA1A6" d="M18.011,1.188c-1.995,0-3.615,1.618-3.615,3.614c0,0.085,0.008,0.167,0.016,0.25L7.733,8.184
	C7.084,7.565,6.208,7.182,5.24,7.182c-1.996,0-3.615,1.619-3.615,3.614c0,1.996,1.619,3.613,3.615,3.613
	c0.629,0,1.222-0.162,1.737-0.445l2.89,2.438c-0.126,0.368-0.198,0.763-0.198,1.173c0,1.995,1.618,3.613,3.614,3.613
	c1.995,0,3.615-1.618,3.615-3.613c0-1.997-1.62-3.614-3.615-3.614c-0.63,0-1.222,0.162-1.737,0.443l-2.89-2.435
	c0.126-0.368,0.198-0.763,0.198-1.173c0-0.084-0.008-0.166-0.013-0.25l6.676-3.133c0.648,0.619,1.525,1.002,2.495,1.002
	c1.994,0,3.613-1.617,3.613-3.613C21.625,2.806,20.006,1.188,18.011,1.188z"/>
</svg>
